<mxfile host="app.diagrams.net" modified="2023-10-14T15:41:14.832Z" agent="Mozilla/5.0 (Windows NT 10.0; Win64; x64; rv:109.0) Gecko/20100101 Firefox/119.0" etag="7o2w5VLE8wNhUA1zDiBd" version="22.0.4" type="device">
  <diagram name="Page-1" id="QyLstI6LIwdhRGIR5yRl">
    <mxGraphModel dx="1434" dy="774" grid="1" gridSize="10" guides="1" tooltips="1" connect="1" arrows="1" fold="1" page="1" pageScale="1" pageWidth="827" pageHeight="1169" math="0" shadow="0">
      <root>
        <mxCell id="0" />
        <mxCell id="1" parent="0" />
        <mxCell id="f_cGPFJDXGQllaGJy8tu-8" style="edgeStyle=orthogonalEdgeStyle;rounded=0;orthogonalLoop=1;jettySize=auto;html=1;startArrow=classic;startFill=1;" edge="1" parent="1" source="f_cGPFJDXGQllaGJy8tu-1">
          <mxGeometry relative="1" as="geometry">
            <mxPoint x="370" y="235" as="targetPoint" />
          </mxGeometry>
        </mxCell>
        <mxCell id="f_cGPFJDXGQllaGJy8tu-1" value="&lt;div&gt;End-user&lt;/div&gt;&lt;div&gt;Web Browser&lt;/div&gt;" style="rounded=1;whiteSpace=wrap;html=1;fillColor=#dae8fc;strokeColor=#6c8ebf;" vertex="1" parent="1">
          <mxGeometry x="160" y="205" width="120" height="60" as="geometry" />
        </mxCell>
        <mxCell id="f_cGPFJDXGQllaGJy8tu-2" value="" style="rounded=1;whiteSpace=wrap;html=1;fillColor=#fff2cc;strokeColor=#d6b656;" vertex="1" parent="1">
          <mxGeometry x="370" y="200" width="130" height="170" as="geometry" />
        </mxCell>
        <mxCell id="f_cGPFJDXGQllaGJy8tu-3" value="&lt;font style=&quot;font-size: 17px;&quot;&gt;Web Server&lt;br&gt;&lt;/font&gt;" style="text;html=1;strokeColor=none;fillColor=none;align=center;verticalAlign=middle;whiteSpace=wrap;rounded=0;" vertex="1" parent="1">
          <mxGeometry x="380" y="265" width="110" height="30" as="geometry" />
        </mxCell>
        <mxCell id="f_cGPFJDXGQllaGJy8tu-9" style="edgeStyle=orthogonalEdgeStyle;rounded=0;orthogonalLoop=1;jettySize=auto;html=1;startArrow=classic;startFill=1;" edge="1" parent="1" source="f_cGPFJDXGQllaGJy8tu-4">
          <mxGeometry relative="1" as="geometry">
            <mxPoint x="370" y="327.5" as="targetPoint" />
          </mxGeometry>
        </mxCell>
        <mxCell id="f_cGPFJDXGQllaGJy8tu-4" value="&lt;div&gt;Admin&lt;/div&gt;&lt;div&gt;Web Browser&lt;/div&gt;" style="rounded=1;whiteSpace=wrap;html=1;fillColor=#dae8fc;strokeColor=#6c8ebf;" vertex="1" parent="1">
          <mxGeometry x="160" y="300" width="120" height="55" as="geometry" />
        </mxCell>
        <mxCell id="f_cGPFJDXGQllaGJy8tu-10" value="HTTP" style="text;html=1;strokeColor=none;fillColor=none;align=center;verticalAlign=middle;whiteSpace=wrap;rounded=0;" vertex="1" parent="1">
          <mxGeometry x="290" y="200" width="60" height="30" as="geometry" />
        </mxCell>
        <mxCell id="f_cGPFJDXGQllaGJy8tu-11" value="HTTP" style="text;html=1;strokeColor=none;fillColor=none;align=center;verticalAlign=middle;whiteSpace=wrap;rounded=0;" vertex="1" parent="1">
          <mxGeometry x="290" y="295" width="60" height="30" as="geometry" />
        </mxCell>
        <mxCell id="f_cGPFJDXGQllaGJy8tu-22" value="&lt;div&gt;&lt;br&gt;&lt;/div&gt;&lt;div&gt;SQLite DB&lt;/div&gt;" style="strokeWidth=2;html=1;shape=mxgraph.flowchart.database;whiteSpace=wrap;fillColor=#f8cecc;strokeColor=#b85450;" vertex="1" parent="1">
          <mxGeometry x="663" y="255" width="60" height="60" as="geometry" />
        </mxCell>
        <mxCell id="f_cGPFJDXGQllaGJy8tu-23" style="edgeStyle=orthogonalEdgeStyle;rounded=0;orthogonalLoop=1;jettySize=auto;html=1;entryX=0;entryY=0.5;entryDx=0;entryDy=0;entryPerimeter=0;startArrow=classic;startFill=1;endArrow=classic;endFill=1;" edge="1" parent="1" target="f_cGPFJDXGQllaGJy8tu-22">
          <mxGeometry relative="1" as="geometry">
            <mxPoint x="500" y="285" as="sourcePoint" />
          </mxGeometry>
        </mxCell>
        <mxCell id="f_cGPFJDXGQllaGJy8tu-24" value="SQLite Connection" style="text;html=1;strokeColor=none;fillColor=none;align=center;verticalAlign=middle;whiteSpace=wrap;rounded=0;" vertex="1" parent="1">
          <mxGeometry x="523" y="255" width="130" height="30" as="geometry" />
        </mxCell>
      </root>
    </mxGraphModel>
  </diagram>
</mxfile>
